<svg xmlns="http://www.w3.org/2000/svg" xmlns:xlink="http://www.w3.org/1999/xlink" version="1.1" id="Layer_1" x="0px" y="0px" width="100px" height="100px" viewBox="0 0 100 100" enable-background="new 0 0 100 100" xml:space="preserve">
<g>
	<path d="M36.454,91.16c-1.666,0-3.281-0.77-4.801-2.289L4.266,61.482c-3.049-3.049-3.05-6.549,0-9.6l7.244-7.24   c3.035-3.039,6.562-3.04,9.601,0l15.647,15.59L78.81,19.07c3.009-3.01,6.547-3.024,9.588,0.014l7.243,7.241   c3.046,3.051,3.046,6.55,0,9.601L41.237,88.888C39.736,90.391,38.121,91.16,36.454,91.16z M16.308,46.022   c-0.658,0-1.399,0.408-2.204,1.215L6.86,54.477c-1.627,1.629-1.628,2.783,0,4.411l27.387,27.389c1.613,1.612,2.801,1.612,4.412,0   l54.403-52.962c1.609-1.611,1.609-2.766-0.018-4.395l-7.242-7.24c-1.611-1.612-2.802-1.613-4.411-0.001L38.029,64.124   c-0.717,0.7-1.866,0.697-2.578-0.012L18.517,47.241C17.708,46.431,16.966,46.022,16.308,46.022z"/>
</g>
</svg>